<svg width="115" height="52" viewBox="0 0 115 52" fill="none" xmlns="http://www.w3.org/2000/svg">
<path fill-rule="evenodd" clip-rule="evenodd" d="M0 16.033V24.0518H23.4559C26.1823 24.0518 29.6655 21.5308 29.6655 17.3604C29.6655 15.6831 30.307 14.589 28.3356 12.3704L25.3354 8.81553C23.6163 7.21179 25.5408 7.21179 26.9848 7.21179H36.8881V24.0518H44.742V7.21179H55.3273V0H21.0503C16.8799 0 14.8407 4.00429 14.9554 6.08916C15.0708 8.17403 15.4543 10.7971 18.9198 13.9482C22.081 16.8216 17.3547 16.033 16.8799 16.033H0V16.033ZM72.6941 0H60.0238L52.9211 24.0524H60.8257L62.1081 20.6845H70.4476L71.6856 24.0524H79.4285L72.6941 0V0ZM63.8728 14.9104L66.5992 6.08916L69.1658 14.9104H63.8728V14.9104ZM104.449 16.033C101.402 16.033 101.402 14.9104 101.402 14.9104C104.013 14.9104 106.328 11.1064 106.328 7.21179C106.328 3.31716 102.524 0 99.476 0H82.43V24.0524H91.0915V16.0337C91.0915 16.0337 94.7795 20.3638 96.704 22.1279C98.6291 23.892 98.7889 24.0524 101.401 24.0524H114.997V16.0337C114.999 16.033 107.496 16.033 104.449 16.033V16.033ZM96.5899 10.4199H91.0928V6.08916H96.5899C99.1102 6.08916 99.5464 10.4199 96.5899 10.4199ZM0 27.0989H8.86117L11.1064 35.1189L13.1913 27.0989H22.4936L24.8993 35.1189L27.3055 27.0989H35.0035L27.9464 51.157H20.8899L17.7978 39.7691L14.3139 51.157H7.09705L0 27.0989ZM53.1892 27.2377H40.519L33.4169 51.2895H41.3209L42.6039 47.9222H50.944L52.182 51.2895H59.9256L53.1892 27.2377ZM44.3686 42.1475L47.095 33.3262L49.661 42.1475H44.3686ZM104.609 34.317C103.167 34.317 101.594 34.4856 103.314 36.0887L106.314 39.6442C108.285 41.8628 108.254 42.7877 108.254 44.4662C108.254 48.636 104.128 51.157 101.402 51.157L82.4509 51.2844C79.8399 51.2844 79.6802 51.1246 77.7551 49.3605C75.8312 47.5964 72.142 43.2656 72.142 43.2656V51.2844H63.4817V27.2326H80.5277C83.5748 27.2326 87.3794 30.5504 87.3794 34.4444C87.3794 38.3397 85.0645 42.143 82.4522 42.143C82.4522 42.143 83.6008 43.298 85.5253 43.298C87.4504 43.298 94.8606 43.3056 94.8606 43.3056C95.3348 43.3056 100.06 44.0941 96.8999 41.2207C93.4344 38.0696 93.0509 35.4479 92.9355 33.363C92.8201 31.2781 94.6229 27.0995 98.7914 27.0995H115V34.3176H104.609V34.317V34.317ZM77.6397 37.6519H72.1413V33.3212H77.6397C80.1607 33.3212 80.5962 37.6519 77.6397 37.6519Z" fill="white"/>
</svg>
