<svg width="711" height="305" viewBox="0 0 711 305" fill="none" xmlns="http://www.w3.org/2000/svg">
<g clip-path="url(#clip0_2_14)">
<path d="M133.218 165.172L142.939 193.721C148.199 209.159 152.895 221.503 153.507 221.503C153.517 221.503 153.526 221.499 153.534 221.492C154.207 220.898 173.234 165.64 173.234 165.64H210.113L165.621 295.279H139.989C139.989 295.279 112.63 216.261 112.742 215.962L84.1835 294.285H58.8092L14.8781 165.172L51.5771 165.196C51.5771 165.196 71.6803 222.178 71.9482 222.178L71.9505 222.176L92.0099 165.17L133.218 165.172ZM2.34905 156.193L6.38673 168.06L50.3179 297.173L52.3866 303.255H90.4614L92.612 297.357L112.442 242.976C114.15 247.947 115.997 253.306 117.844 258.659C122.393 271.846 126.95 285.03 131.513 298.212L133.603 304.249H172.027L174.106 298.192L218.597 168.554L222.675 156.669H166.836L164.753 162.72C160.93 173.82 157.082 184.912 153.209 195.995C152.61 194.273 152.017 192.55 151.429 190.825L141.709 162.278L139.639 156.2H85.6579L83.5489 162.194L71.8283 195.502C67.8845 184.41 63.9541 173.313 60.037 162.211L57.9268 156.23L51.5838 156.225L14.8848 156.202L2.34905 156.193ZM701.182 164.67L701.099 198.65C701.099 198.65 664.498 198.529 645.89 198.529C639.7 198.529 635.498 198.544 635.3 198.579C632.097 199.163 630.052 205.983 630.962 208.974C631.408 210.489 634.766 215.433 638.397 219.975C642.018 224.518 647.974 231.952 651.604 236.49C660.931 248.13 662.21 250.427 663.075 257.111C664.476 267.969 659.343 279.716 649.812 287.464C640.258 295.234 640.679 295.289 569.773 295.289H566.659C523.535 295.277 500.728 294.92 497.408 294.181C491.51 292.847 482.11 285.178 457.277 261.351C448.344 252.789 440.109 245.292 439.686 245.29C439.675 245.29 439.671 245.298 439.671 245.31L439.377 295.294L399.126 295.117L398.877 166.194H488.647C515.702 167.17 534.013 194.124 530.369 211.313C529.543 215.214 527.434 220.868 525.682 223.871C522.081 230.038 512.921 237.955 505.486 241.353C502.74 242.594 500.497 244.041 500.497 244.557C500.497 246.474 509.536 255.374 512.921 256.788C515.813 257.998 524.234 258.267 561.372 258.267L573.265 258.27C610.595 258.27 608.716 258 611.6 251.832C613.619 247.539 612.084 244.971 597.878 228.97C579.88 211.062 581.764 202.484 581.642 196.149C581.385 188.557 587.363 164.678 618.433 164.678L701.182 164.67ZM460.033 224.23C477.267 224.23 480.766 223.963 484.433 222.37C496.812 216.987 497.474 201.09 485.6 194.035C482.999 192.486 479.656 192.232 460.976 192.13L439.359 192.015C439.538 192.182 439.29 222.928 439.29 222.928C439.29 222.928 444.705 224.23 460.033 224.23ZM710.175 155.7H618.433C600.456 155.7 589.823 162.794 584.072 168.748C574.709 178.428 572.509 190.617 572.677 196.363C572.686 196.842 572.682 197.333 572.675 197.846C572.594 207.185 573.967 217.757 591.355 235.123C594.789 238.993 600.537 245.482 602.715 248.706C597.963 249.29 585.918 249.29 573.264 249.29H567.892L561.373 249.288C539.055 249.288 520.235 249.223 516.38 248.463C515.839 248.113 515.084 247.505 514.252 246.783C521.963 242.037 529.759 234.675 533.43 228.382C535.657 224.555 538.114 218.018 539.146 213.17C541.434 202.378 537.661 189.359 529.055 178.335C519.011 165.473 504.402 157.777 488.974 157.221L488.811 157.214H389.89L389.909 166.205L390.158 295.127L390.176 304.04L399.089 304.079L439.34 304.256L448.294 304.294L448.349 295.339L448.522 265.395C449.343 266.175 450.193 266.986 451.067 267.822C478.234 293.88 487.348 301.101 495.427 302.927C497.647 303.421 501.318 304.241 566.653 304.259H569.767C605.141 304.259 622.895 304.259 633.456 303.24C645.553 302.071 649.445 299.327 655.276 294.576L655.472 294.418C667.451 284.677 673.773 269.941 671.971 255.959C670.795 246.865 668.389 243.088 658.603 230.878L655.695 227.245C652.262 222.958 648.832 218.67 645.404 214.379C643.179 211.594 641.427 209.121 640.376 207.501C641.76 207.498 643.56 207.495 645.89 207.495C664.273 207.495 700.706 207.615 701.071 207.618L710.05 207.646L710.073 198.666L710.158 164.684L710.175 155.7ZM448.318 214.933L448.359 207.579C448.37 205.337 448.382 203.09 448.383 201.031L460.928 201.097C468.137 201.136 478.984 201.196 481.099 201.796C483.797 203.434 485.304 205.968 485.14 208.592C485.05 210.009 484.375 212.615 480.855 214.142C478.892 214.995 475.765 215.26 460.035 215.26C455.043 215.26 451.194 215.115 448.318 214.933ZM317.318 164.14L362.495 294.118L325.683 294.285L319.572 274.763L253.754 274.235L247.945 293.78L211.504 293.398L256.108 164.195L317.318 164.14ZM287.716 183.196C287.623 183.57 281.948 199.141 276.254 214.708C270.513 230.406 264.753 246.104 264.674 246.225C264.826 246.18 285.211 246.135 298.276 246.135C304.39 246.135 308.9 246.146 308.984 246.167L308.985 246.172V246.169L308.984 246.167C308.755 245.577 287.782 183.955 287.716 183.196L287.717 183.19L287.716 183.196ZM323.695 155.164L317.311 155.17L256.102 155.228L249.715 155.234L247.63 161.273L203.026 290.476L198.964 302.241L211.412 302.37L247.853 302.752L254.618 302.823L256.546 296.34L260.432 283.264L312.968 283.684L317.125 296.97L319.104 303.293L325.728 303.264L362.539 303.097L375.09 303.037L370.967 291.182L325.79 161.205L323.695 155.164ZM277.585 237.177C279.284 232.547 281.572 226.29 284.679 217.792L287.362 210.453L289.794 217.625C290.519 219.762 293.702 229.141 296.432 237.167C288.314 237.167 282.203 237.169 277.585 237.177ZM332.545 9.00332V41.0715H268.319V139.15H230.028V40.9941L155.06 41.2061C146.022 41.2061 144.811 48.4046 144.811 51.1629C144.811 54.5502 147.02 57.9353 159.152 73.2967C167.024 83.2748 174.256 93.2328 175.209 95.408C180.412 107.384 173.684 126.041 161.429 133.621C152.694 139.017 154.186 139.151 89.3223 139.151H8.97012V103.123H118.742L121.982 100.87C124.169 99.3459 125.436 97.2492 125.918 94.3776C126.591 90.2513 126.243 89.7131 112.687 74.4426C96.6643 56.3891 94.9712 53.0937 95.8009 41.5682C96.7428 28.4158 108.471 9.30831 128.968 9.30831L332.545 9.00332ZM341.515 0.0197449L332.53 0.0343213L128.953 0.337063C117.227 0.337063 106.336 5.40518 98.2957 14.6029C91.7767 22.0605 87.4979 31.904 86.8521 40.928C85.7611 56.0774 89.2482 61.5525 105.976 80.3988C110.831 85.8672 115.448 91.0687 116.988 93.2765C116.972 93.3372 116.952 93.3968 116.928 93.4548C116.911 93.4694 116.885 93.4873 116.849 93.5131L115.928 94.1533H0V148.121H89.3223C121.303 148.121 137.088 148.092 146.388 147.408C157.029 146.63 160.424 144.804 165.51 141.645L166.145 141.25C182.136 131.36 190.377 107.806 183.437 91.8323C181.295 86.9458 167.736 69.6918 166.196 67.7408C161.94 62.3498 154.914 53.4559 153.802 50.8815C153.829 50.6662 153.881 50.4408 153.937 50.2861C154.122 50.239 154.477 50.1751 155.06 50.1751L221.057 49.9878V148.119H277.289V50.0405H341.515V0.0197449V0.0197449ZM436.89 10.045L481.942 140.358L445.198 140.157L439.233 120.635L373.708 120.344L367.854 139.149H330.438L374.996 10.045H436.89ZM384.402 92.5937L429.031 92.5376V92.5387C429.185 92.5387 407.343 28.4012 407.198 28.3564C407.038 28.3508 383.9 92.5937 384.402 92.5937ZM443.281 1.07486H368.606L366.521 7.1196L321.961 136.224L317.855 148.12H374.462L376.424 141.815L380.305 129.345L432.593 129.577L436.629 142.778L438.559 149.09L445.16 149.127L481.905 149.33L494.572 149.399L490.434 137.429L445.381 7.11287L443.281 1.07486ZM396.864 83.609C400.202 74.1374 403.571 64.6769 406.971 55.2275C410.194 64.6754 413.404 74.1277 416.601 83.5843L396.864 83.609ZM563.422 10.045C592.488 10.045 612.657 10.4598 616.538 11.1326C625.508 12.6934 633.614 17.479 639.69 24.8367C646.047 32.5263 647.506 36.2063 648.336 46.7451C649.526 61.6254 642.449 74.4639 628.488 82.7927C624.419 85.2258 620.239 87.5917 619.194 88.0626C617.591 88.7903 617.806 89.4878 620.674 92.8515C622.522 95.0167 625.731 98.1002 627.794 99.7014L631.561 102.628L701.169 103.626L701.852 139.149H659.174C626.166 139.149 615.605 138.845 612.506 137.804C607.876 136.234 596.734 126.793 574.08 105.243L557.911 89.8578L558.082 139.149H516.545V10.045H563.422ZM557.304 68.0929H579.359C600.821 68.0929 601.493 68.0245 604.555 65.7281C610.028 61.6243 611.965 57.396 611.383 50.9039C610.793 44.2088 608.21 40.7239 601.741 37.9208C598.096 36.3274 594.586 36.0707 577.385 36.0707H557.304V68.0929ZM563.422 1.07486H507.585V148.119H567.09L567.06 139.118L566.959 110.843L567.903 111.74C595.917 138.394 604.182 144.451 609.633 146.298C613.818 147.711 620.826 148.119 659.18 148.119H711L710.825 138.977L710.142 103.454L709.979 94.7835L701.307 94.659L634.701 93.7048L633.306 92.6194C632.862 92.2719 632.323 91.8144 631.749 91.2964L633.102 90.4924C649.924 80.4537 658.74 64.2469 657.286 46.0309C656.318 33.7429 654.124 28.2072 646.61 19.1205C639.228 10.1851 629.095 4.20991 618.077 2.29591C611.952 1.23408 581.207 1.07486 563.422 1.07486ZM566.274 45.0397H577.385C593.111 45.0397 596.228 45.3009 598.149 46.1396C601.793 47.7173 602.163 48.4842 602.448 51.6966C602.735 54.8911 602.34 56.175 599.172 58.5487L598.922 58.7348C596.831 59.1228 589.071 59.1228 579.359 59.1228H566.274V45.0397Z" fill="#FFC500"/>
</g>
<defs>
<clipPath id="clip0_2_14">
<rect width="711" height="304.308" fill="white"/>
</clipPath>
</defs>
</svg>
