<svg width="128" height="54" viewBox="0 0 128 54" fill="none" xmlns="http://www.w3.org/2000/svg">
<g clip-path="url(#clip0_6_231)">
<path d="M23.9829 29.3103L25.733 34.3763C26.6799 37.1159 27.5253 39.3064 27.6356 39.3064C27.6374 39.3063 27.6391 39.3056 27.6404 39.3044C27.7615 39.199 31.1871 29.3933 31.1871 29.3933H37.8262L29.8164 52.3981H25.2019C25.2019 52.3981 20.2766 38.3762 20.2968 38.3231L15.1554 52.2216H10.5873L2.67847 29.3103L9.28533 29.3145C9.28533 29.3145 12.9045 39.4262 12.9527 39.4262L12.9531 39.4258L16.5644 29.3099L23.9829 29.3103V29.3103ZM0.422895 27.717L1.14979 29.8229L9.05864 52.7341L9.43107 53.8133H16.2856L16.6728 52.7668L20.2427 43.1167C20.5503 43.9989 20.8828 44.9498 21.2152 45.8997C22.0342 48.2397 22.8545 50.5794 23.6761 52.9186L24.0523 53.9898H30.9697L31.3439 52.915L39.3537 29.9104L40.0878 27.8015H30.0353L29.6602 28.8752C28.972 30.8449 28.2792 32.8132 27.5819 34.7798C27.4741 34.4744 27.3673 34.1687 27.2615 33.8626L25.5116 28.7968L25.139 27.7182H15.4208L15.0411 28.7818L12.9311 34.6925C12.2211 32.7241 11.5135 30.7549 10.8084 28.7848L10.4285 27.7235L9.28654 27.7227L2.67968 27.7185L0.422895 27.717V27.717ZM126.233 29.2212L126.218 35.251C126.218 35.251 119.628 35.2295 116.278 35.2295C115.164 35.2295 114.408 35.2323 114.372 35.2384C113.795 35.3421 113.427 36.5522 113.591 37.0831C113.671 37.3519 114.276 38.2292 114.929 39.0352C115.581 39.8414 116.653 41.1606 117.307 41.9658C118.986 44.0313 119.216 44.439 119.372 45.6251C119.624 47.5517 118.7 49.6363 116.985 51.0112C115.264 52.3901 115.34 52.3999 102.575 52.3999H102.015C94.2509 52.3977 90.1451 52.3344 89.5474 52.2033C88.4856 51.9665 86.7935 50.6055 82.3227 46.3774C80.7145 44.8581 79.232 43.5278 79.1559 43.5274C79.1539 43.5274 79.1531 43.5287 79.1531 43.5309L79.1002 52.4006L71.8538 52.3692L71.809 29.4916H87.9703C92.841 29.6649 96.1373 34.4479 95.4813 37.4982C95.3327 38.1904 94.953 39.1936 94.6375 39.7266C93.9893 40.821 92.3401 42.2257 91.0016 42.8288C90.5073 43.049 90.1035 43.3057 90.1035 43.3972C90.1035 43.7375 91.7307 45.3169 92.3401 45.5678C92.8609 45.7825 94.3769 45.8302 101.063 45.8302L103.204 45.8306C109.924 45.8306 109.586 45.7829 110.105 44.6883C110.469 43.9265 110.192 43.4708 107.635 40.6313C104.395 37.4536 104.734 35.9315 104.712 34.8073C104.666 33.46 105.742 29.2226 111.335 29.2226L126.233 29.2212V29.2212ZM82.8188 39.7903C85.9214 39.7903 86.5514 39.7429 87.2115 39.4602C89.4402 38.5049 89.5593 35.6839 87.4216 34.432C86.9533 34.1572 86.3516 34.1121 82.9886 34.094L79.097 34.0737C79.1293 34.1033 79.0846 39.5593 79.0846 39.5593C79.0846 39.5593 80.0594 39.7903 82.8188 39.7903V39.7903ZM127.851 27.6294H111.335C108.099 27.6294 106.185 28.8883 105.149 29.9448C103.464 31.6625 103.068 33.8256 103.098 34.8453C103.1 34.9302 103.099 35.0174 103.098 35.1083C103.083 36.7655 103.33 38.6416 106.461 41.7233C107.079 42.4099 108.114 43.5614 108.506 44.1336C107.65 44.2373 105.482 44.2373 103.204 44.2373H102.236L101.063 44.2369C97.0451 44.2369 93.6569 44.2253 92.9629 44.0904C92.8656 44.0284 92.7295 43.9205 92.5798 43.7924C93.9679 42.9501 95.3715 41.6437 96.0324 40.5271C96.4332 39.848 96.8757 38.688 97.0614 37.8276C97.4734 35.9126 96.7942 33.6023 95.2447 31.646C93.4366 29.3636 90.8066 27.9981 88.029 27.8994L87.9998 27.8982H70.1911L70.1946 29.4936L70.2394 52.371L70.2426 53.9526L71.8472 53.9596L79.0935 53.991L80.7056 53.9978L80.7155 52.4086L80.7466 47.0951C80.8943 47.2334 81.0473 47.3774 81.2048 47.5257C86.0956 52.1497 87.7363 53.4311 89.1907 53.7552C89.5904 53.8428 90.2513 53.9884 102.013 53.9916H102.574C108.942 53.9916 112.139 53.9916 114.04 53.8108C116.218 53.6032 116.918 53.1163 117.968 52.2733L118.003 52.2453C120.16 50.5166 121.298 47.9017 120.974 45.4206C120.762 43.8069 120.329 43.1366 118.567 40.97L118.043 40.3253C117.425 39.5646 116.808 38.8036 116.191 38.0421C115.79 37.5479 115.475 37.1092 115.286 36.8217C115.535 36.8211 115.859 36.8207 116.278 36.8207C119.588 36.8207 126.147 36.8419 126.213 36.8423L127.829 36.8473L127.833 35.254L127.848 29.2238L127.851 27.6294V27.6294ZM80.7098 38.1404L80.7173 36.8356C80.7193 36.4376 80.7213 36.0389 80.7215 35.6736L82.9799 35.6853C84.2779 35.6921 86.2307 35.7028 86.6114 35.8093C87.097 36.1 87.3683 36.5497 87.3389 37.0152C87.3227 37.2667 87.2012 37.7292 86.5674 38.0002C86.2141 38.1516 85.6511 38.1985 82.8193 38.1985C81.9206 38.1985 81.2276 38.1729 80.7098 38.1404ZM57.1262 29.1273L65.2593 52.1919L58.6321 52.2216L57.5319 48.7575L45.6828 48.6638L44.6372 52.132L38.0767 52.0642L46.1067 29.137L57.1262 29.1273ZM51.7969 32.5088C51.7801 32.575 50.7585 35.3381 49.7335 38.1006C48.7 40.8862 47.663 43.6718 47.6487 43.6933C47.6761 43.6853 51.3459 43.6774 53.698 43.6774C54.7988 43.6774 55.6106 43.6794 55.6258 43.683L55.626 43.6839V43.6833L55.6258 43.683C55.5846 43.5783 51.8088 32.6435 51.7969 32.5088L51.7971 32.5076L51.7969 32.5088ZM58.2742 27.5343L57.125 27.5355L46.1055 27.5456L44.9557 27.5468L44.5804 28.6185L36.5505 51.5457L35.8191 53.6335L38.0602 53.6564L44.6206 53.7242L45.8384 53.7367L46.1854 52.5863L46.8851 50.2659L56.343 50.3405L57.0915 52.6981L57.4477 53.8201L58.6401 53.8149L65.2672 53.7853L67.5268 53.7747L66.7845 51.671L58.6514 28.6064L58.2742 27.5343V27.5343ZM49.9731 42.0878C50.2789 41.2661 50.6909 40.1558 51.2503 38.6478L51.7333 37.3455L52.1711 38.6182C52.3015 38.9974 52.8746 40.6618 53.3662 42.086C51.9047 42.086 50.8046 42.0862 49.9731 42.0878V42.0878ZM59.8674 1.59789V7.28845H48.3049V24.6926H41.4114V7.27472L27.9151 7.31233C26.2881 7.31233 26.0701 8.58972 26.0701 9.07918C26.0701 9.68027 26.4678 10.281 28.6519 13.0069C30.069 14.7775 31.371 16.5446 31.5425 16.9306C32.4792 19.0558 31.268 22.3664 29.0617 23.7115C27.4892 24.6691 27.7579 24.6928 16.0805 24.6928H1.61487V18.2997H21.3769L21.9603 17.8997C22.3539 17.6293 22.582 17.2573 22.6688 16.7477C22.7899 16.0155 22.7273 15.92 20.2869 13.2102C17.4023 10.0066 17.0975 9.42181 17.2469 7.37659C17.4164 5.04267 19.5279 1.65201 23.2179 1.65201L59.8674 1.59789V1.59789ZM61.4823 0.0037384L59.8648 0.00632502L23.2152 0.0600471C21.1042 0.0600471 19.1435 0.959394 17.696 2.59155C16.5224 3.9149 15.7521 5.66167 15.6358 7.26298C15.4394 9.95127 16.0672 10.9228 19.0787 14.2671C19.9528 15.2375 20.7838 16.1605 21.0612 16.5523C21.0583 16.5631 21.0546 16.5737 21.0503 16.584C21.0473 16.5865 21.0426 16.5897 21.0362 16.5943L20.8702 16.7079H0V26.2846H16.0805C21.8379 26.2846 24.6797 26.2794 26.3539 26.158C28.2696 26.0199 28.8808 25.696 29.7965 25.1353L29.9107 25.0653C32.7896 23.3104 34.2733 19.1306 33.0238 16.296C32.6382 15.4289 30.1971 12.3672 29.92 12.021C29.1537 11.0643 27.8889 9.48608 27.6886 9.02924C27.6935 8.99104 27.703 8.95105 27.7131 8.92359C27.7464 8.91523 27.8102 8.90389 27.9151 8.90389L39.7966 8.87066V26.2842H49.9198V8.88001H61.4823V0.0037384V0.0037384ZM78.6525 1.78273L86.7632 24.9071L80.1482 24.8713L79.0744 21.4072L67.2779 21.3555L66.224 24.6924H59.4881L67.5098 1.78273H78.6525ZM69.2032 16.4311L77.2376 16.4212V16.4214C77.2653 16.4214 73.3333 5.04008 73.307 5.03212C73.2784 5.03113 69.1128 16.4311 69.2032 16.4311V16.4311ZM79.8031 0.19097H66.3594L65.9842 1.26362L57.9621 24.1735L57.2229 26.2844H67.4137L67.767 25.1656L68.4656 22.9528L77.8789 22.994L78.6054 25.3365L78.953 26.4565L80.1414 26.463L86.7565 26.4991L89.0369 26.5114L88.2919 24.3872L80.1812 1.26243L79.8031 0.19097ZM71.4467 14.8368C72.0476 13.1561 72.6541 11.4773 73.2663 9.80045C73.8464 11.477 74.4243 13.1543 74.9998 14.8324L71.4467 14.8368V14.8368ZM101.432 1.78273C106.664 1.78273 110.296 1.85635 110.994 1.97574C112.609 2.2527 114.068 3.10191 115.162 4.40755C116.307 5.77209 116.569 6.42512 116.719 8.29524C116.933 10.9358 115.659 13.214 113.146 14.6919C112.413 15.1237 111.661 15.5435 111.472 15.6271C111.184 15.7562 111.222 15.88 111.739 16.4769C112.071 16.8611 112.649 17.4083 113.021 17.6924L113.699 18.2117L126.23 18.3888L126.353 24.6924H118.67C112.728 24.6924 110.826 24.6385 110.268 24.4538C109.435 24.1753 107.429 22.4999 103.351 18.6757L100.44 15.9457L100.47 24.6924H92.9926V1.78273H101.432ZM100.33 12.0834H104.301C108.165 12.0834 108.286 12.0713 108.837 11.6638C109.822 10.9356 110.171 10.1853 110.066 9.03322C109.96 7.84517 109.495 7.22677 108.33 6.72934C107.674 6.4466 107.042 6.40104 103.946 6.40104H100.33V12.0834V12.0834ZM101.432 0.19097H91.3795V26.2842H102.092L102.087 24.687L102.069 19.6696L102.239 19.8288C107.282 24.5585 108.77 25.6333 109.751 25.961C110.504 26.2117 111.766 26.2842 118.671 26.2842H128L127.969 24.662L127.846 18.3584L127.816 16.8197L126.255 16.7977L114.264 16.6283L114.013 16.4357C113.933 16.374 113.836 16.2929 113.733 16.2009L113.976 16.0583C117.005 14.2769 118.592 11.401 118.33 8.1685C118.156 5.98798 117.761 5.00566 116.408 3.3932C115.079 1.80761 113.255 0.747291 111.271 0.407649C110.169 0.219224 104.634 0.19097 101.432 0.19097V0.19097ZM101.945 7.99261H103.946C106.777 7.99261 107.338 8.03897 107.684 8.1878C108.34 8.46775 108.406 8.60384 108.458 9.17389C108.509 9.74076 108.438 9.96858 107.868 10.3898L107.823 10.4228C107.446 10.4917 106.049 10.4917 104.301 10.4917H101.945V7.99261V7.99261Z" fill="#FFC500"/>
</g>
<defs>
<clipPath id="clip0_6_231">
<rect width="128" height="54" fill="white"/>
</clipPath>
</defs>
</svg>
